<svg width="719" height="1110" viewBox="0 0 719 1110" fill="none" xmlns="http://www.w3.org/2000/svg">
<rect width="719" height="1110" fill="black"/>
<rect x="10.5" y="10.5" width="698" height="1089" fill="black" stroke="white" stroke-width="11"/>
<rect x="58" y="193" width="620" height="667" fill="#606060"/>
<path d="M21 101H51V1072H21V101Z" fill="#BEBEBE"/>
<path d="M668 118H698V1089H668V118Z" fill="#BEBEBE"/>
<rect x="21" y="20" width="677" height="47" fill="#9FAE61"/>
<path d="M45.8 31.768H47.752V29.816H52.072V31.768H54.024V36.088H52.072V38.072H47.752V36.088H45.8V31.768ZM51.72 35.736V32.12H48.104V35.736H51.72ZM25.992 47.608H28.008V43.64H29.992V41.656H31.944V37.72H33.928V35.736H35.912V33.752H40.2V35.736H42.184V39.704H44.168V41.656H46.12V43.64H48.104V45.624H50.088V49.592H52.072V51.576H54.024V53.528H56.008V55.896H53.672V53.88H51.72V51.896H49.736V49.912H47.752V45.976H45.8V43.992H43.816V42.008H41.832V40.024H39.848V36.088H36.264V38.072H34.28V42.008H32.296V43.992H30.312V47.96H28.36V49.912H25.992V47.608ZM68.008 36.088H64.072V34.104H62.088V31.768H64.392V33.752H68.36V35.736H72.296V37.72H74.28V40.024H71.976V38.072H68.008V36.088ZM62.088 53.528H68.008V51.576H71.976V49.592H75.912V47.608H77.896V45.624H79.88V43.64H81.832V39.704H83.816V33.752H86.152V40.024H84.168V43.992H82.184V45.976H80.2V47.96H78.248V49.912H76.264V51.896H72.296V53.88H68.36V55.896H62.088V53.528ZM97.192 29.816H117.288V32.12H97.192V29.816ZM107.048 55.512V53.528H111.016V51.576H113V49.592H114.952V45.624H116.936V40.024H95.208V37.72H119.272V45.976H117.288V49.912H115.304V51.896H113.32V53.88H111.368V55.896H107.4V57.88H97.192V55.512H107.048ZM127.304 45.624H131.304V43.64H135.24V41.656H139.208V39.704H141.16V37.72H143.144V35.736H145.128V33.752H147.112V31.768H149.064V29.816H151.048V27.832H153.384V30.136H151.4V32.12H149.416V34.104H147.432V36.088H145.48V57.88H143.144V40.024H141.512V42.008H139.528V43.992H135.592V45.976H131.624V47.96H127.304V45.624ZM163.4 27.832H165.736V37.72H169.672V39.704H175.624V41.656H179.56V43.64H183.528V45.976H179.208V43.992H175.272V42.008H169.352V40.024H165.736V57.88H163.4V27.832ZM196.6 51H200.6V55H196.6V51ZM214.47 43.125H221.595V40.75H214.47V43.125ZM212.095 38.375H223.97V40.75H226.345V45.5H214.47V52.625H221.595V50.25H226.345V52.625H223.97V55H212.095V52.625H209.72V40.75H212.095V38.375ZM232.425 38.375H237.175V40.75H239.55V43.125H241.925V40.75H244.3V38.375H249.05V40.75H246.675V43.125H244.3V50.25H246.675V52.625H249.05V55H244.3V52.625H241.925V50.25H239.55V52.625H237.175V55H232.425V52.625H234.8V50.25H237.175V43.125H234.8V40.75H232.425V38.375ZM259.88 43.125H267.005V40.75H259.88V43.125ZM257.505 38.375H269.38V40.75H271.755V45.5H259.88V52.625H267.005V50.25H271.755V52.625H269.38V55H257.505V52.625H255.13V40.75H257.505V38.375Z" fill="white"/>
<rect x="21" y="70" width="677" height="116" fill="#BEBEBE"/>
<rect x="21" y="781" width="669" height="308" fill="#BEBEBE"/>
<rect x="657.462" y="29.4622" width="32.5378" height="32.5378" fill="black"/>
<rect x="654" y="26" width="32.2368" height="32.2369" fill="white"/>
<rect x="570.462" y="29.4622" width="32.5378" height="32.5378" fill="black"/>
<rect x="567" y="26" width="32.5378" height="32.5378" fill="white"/>
<rect x="614.462" y="29.4622" width="32.5378" height="32.5378" fill="black"/>
<rect x="611" y="26" width="32.5378" height="32.5378" fill="white"/>
<path d="M49.425 92.675V90.575H45.25V84.325H51.5V82.25H41.1V101H45.25V92.675H49.425ZM58.4502 101V86.425H54.3002V101H58.4502ZM58.4502 84.325V82.25H54.3002V84.325H58.4502ZM65.4004 101V82.25H61.2504V101H65.4004ZM72.3506 94.75H80.6256V90.7C80.6256 90.1667 80.5089 89.6417 80.2756 89.125C80.0589 88.6083 79.7589 88.15 79.3756 87.75C78.9923 87.35 78.5339 87.0333 78.0006 86.8C77.4673 86.55 76.9006 86.425 76.3006 86.425H72.4256C71.8589 86.425 71.3173 86.55 70.8006 86.8C70.3006 87.0333 69.8506 87.35 69.4506 87.75C69.0673 88.15 68.7589 88.6083 68.5256 89.125C68.3089 89.6417 68.2006 90.1667 68.2006 90.7V96.7C68.2006 97.2167 68.3089 97.7333 68.5256 98.25C68.7589 98.7667 69.0673 99.2333 69.4506 99.65C69.8339 100.05 70.2756 100.375 70.7756 100.625C71.2923 100.875 71.8423 101 72.4256 101H76.3006C76.8339 101 77.3589 100.892 77.8756 100.675C78.3923 100.442 78.8506 100.133 79.2506 99.75C79.6673 99.35 80.0006 98.9 80.2506 98.4C80.5006 97.9 80.6256 97.375 80.6256 96.825H78.5756C78.5756 97.125 78.5089 97.4 78.3756 97.65C78.2423 97.9 78.0673 98.1167 77.8506 98.3C77.6339 98.4833 77.3839 98.6333 77.1006 98.75C76.8173 98.85 76.5256 98.9 76.2256 98.9H72.3506V94.75ZM76.4506 92.675H72.3506V88.475H76.4506V92.675Z" fill="black"/>
<path d="M39 104.125H52.2V105.375H39V104.125Z" fill="black"/>
<path d="M114.425 92.675V90.55H110.25V84.325H116.5V82.25H106.1V101H116.5V98.9H110.25V92.675H114.425ZM131.775 82.25H127.625V86.425H123.6C123.067 86.425 122.542 86.55 122.025 86.8C121.509 87.0333 121.05 87.35 120.65 87.75C120.25 88.1333 119.925 88.5833 119.675 89.1C119.425 89.6 119.3 90.125 119.3 90.675V96.775C119.3 97.3083 119.425 97.8333 119.675 98.35C119.925 98.85 120.25 99.3 120.65 99.7C121.05 100.083 121.509 100.4 122.025 100.65C122.542 100.883 123.067 101 123.6 101H131.775V82.25ZM127.625 88.5V98.9H123.45V88.5H127.625ZM138.75 101V86.425H134.6V101H138.75ZM138.75 84.325V82.25H134.6V84.325H138.75ZM143.55 82.25V86.425H141.55V88.5H143.55V98.7C143.55 99 143.609 99.2917 143.725 99.575C143.859 99.8417 144.025 100.083 144.225 100.3C144.442 100.517 144.692 100.692 144.975 100.825C145.259 100.942 145.55 101 145.85 101H149.775V98.9H147.7V88.5H149.775V86.425H147.7V82.25H143.55Z" fill="black"/>
<path d="M104 104.125H117.2V105.375H104V104.125Z" fill="black"/>
<path d="M186.425 82.25V90.55H182.25V82.25H178.1V101H182.25V92.675H186.425V101H190.575V82.25H186.425ZM197.55 94.75H205.825V90.7C205.825 90.1667 205.708 89.6417 205.475 89.125C205.258 88.6083 204.958 88.15 204.575 87.75C204.191 87.35 203.733 87.0333 203.2 86.8C202.666 86.55 202.1 86.425 201.5 86.425H197.625C197.058 86.425 196.516 86.55 196 86.8C195.5 87.0333 195.05 87.35 194.65 87.75C194.266 88.15 193.958 88.6083 193.725 89.125C193.508 89.6417 193.4 90.1667 193.4 90.7V96.7C193.4 97.2167 193.508 97.7333 193.725 98.25C193.958 98.7667 194.266 99.2333 194.65 99.65C195.033 100.05 195.475 100.375 195.975 100.625C196.491 100.875 197.041 101 197.625 101H201.5C202.033 101 202.558 100.892 203.075 100.675C203.591 100.442 204.05 100.133 204.45 99.75C204.866 99.35 205.2 98.9 205.45 98.4C205.7 97.9 205.825 97.375 205.825 96.825H203.775C203.775 97.125 203.708 97.4 203.575 97.65C203.441 97.9 203.266 98.1167 203.05 98.3C202.833 98.4833 202.583 98.6333 202.3 98.75C202.016 98.85 201.725 98.9 201.425 98.9H197.55V94.75ZM201.65 92.675H197.55V88.475H201.65V92.675ZM212.801 101V82.25H208.651V101H212.801ZM215.601 105.175H219.751V101H223.801C224.451 101 225.034 100.875 225.551 100.625C226.084 100.375 226.534 100.05 226.901 99.65C227.284 99.2333 227.576 98.7667 227.776 98.25C227.976 97.7333 228.076 97.2167 228.076 96.7V90.7C228.076 90.15 227.968 89.625 227.751 89.125C227.534 88.6083 227.234 88.15 226.851 87.75C226.468 87.35 226.009 87.0333 225.476 86.8C224.959 86.55 224.401 86.425 223.801 86.425H215.601V105.175ZM219.751 98.9V88.5H223.926V98.9H219.751Z" fill="black"/>
<path d="M176 104.125H191.3V105.375H176V104.125Z" fill="black"/>
<path d="M93.85 838.9H90.8V835.8H87.7V829.6H84.55V816.7H87.7V813.65H90.8V810.55H103.65V813.65H106.75V816.7H109.3V813.65H112.4V810.55H125.3V813.65H128.35V816.7H131.45V829.6H128.35V835.8H125.3V838.9H122.2V842H119.1V845.05H116V848.15H112.95V851.25H109.85V854.4H106.2V851.25H103.15V848.15H100.05V845.05H96.95V842H93.85V838.9ZM100.6 841.45V844.55H103.65V847.65H106.75V850.7H109.3V847.65H112.4V844.55H115.5V841.45H118.55V838.35H121.65V835.25H124.75V829.1H127.8V817.25H124.75V814.15H112.95V817.25H109.85V820.35H106.2V817.25H103.15V814.15H91.3V817.25H88.25V829.1H91.3V835.25H94.4V838.35H97.5V841.45H100.6Z" fill="#161616"/>
<path d="M51 781H668" stroke="#EAEAEA" stroke-width="7"/>
<path d="M21 114H698V119H21V114Z" fill="#888888"/>
<rect x="21" y="119" width="677" height="5" fill="#ECECEC"/>
<path d="M104 158.25H108.5V162.75H115.25V156H113V153.75H108.5V151.5H106.25V149.25H104V144.75H106.25V142.5H117.5V144.75H119.75V149.25H115.25V144.75H108.5V149.25H110.75V151.5H115.25V153.75H117.5V156H119.75V162.75H117.5V165H106.25V162.75H104V158.25ZM130.73 147H128.48V149.25H126.23V153.75H132.98V149.25H130.73V147ZM132.98 165V156H126.23V165H121.73V149.25H123.98V147H126.23V144.75H128.48V142.5H130.73V144.75H132.98V147H135.23V149.25H137.48V165H132.98ZM150.71 144.75H146.21V147H143.96V160.5H146.21V162.75H150.71V160.5H152.96V158.25H155.21V162.75H152.96V165H143.96V162.75H141.71V160.5H139.46V147H141.71V144.75H143.96V142.5H152.96V144.75H155.21V149.25H152.96V147H150.71V144.75ZM168.44 153.75H161.69V165H157.19V142.5H161.69V151.5H168.44V142.5H172.94V165H168.44V153.75ZM179.42 142.5H188.42V144.75H186.17V162.75H188.42V165H179.42V162.75H181.67V144.75H179.42V142.5ZM206.15 151.5H203.9V156H206.15V158.25H208.4V165H203.9V158.25H201.65V156H199.4V165H192.65V162.75H194.9V144.75H192.65V142.5H199.4V151.5H201.65V149.25H203.9V142.5H208.4V149.25H206.15V151.5ZM221.63 144.75H214.88V162.75H221.63V144.75ZM210.38 144.75H212.63V142.5H223.88V144.75H226.13V162.75H223.88V165H212.63V162.75H210.38V144.75ZM228.11 167.25H246.11V169.5H228.11V167.25ZM257.09 144.75H252.59V147H250.34V160.5H252.59V162.75H257.09V160.5H259.34V158.25H261.59V162.75H259.34V165H250.34V162.75H248.09V160.5H245.84V147H248.09V144.75H250.34V142.5H259.34V144.75H261.59V149.25H259.34V147H257.09V144.75ZM274.82 153.75H268.07V165H263.57V142.5H268.07V151.5H274.82V142.5H279.32V165H274.82V153.75ZM288.05 160.5H292.55V165H288.05V160.5Z" fill="black"/>
</svg>
